# xmcd CD database file
#
# Track frame offsets:
#	150
#	23625
#	55877
#	80252
#	110103
#	141829
#	164555
#	192456
#	232207
#	251407
#
# Disc length: 3622 seconds
#
# Revision: 0
# Processed by: cddbd v1.5.1PL0 Copyright (c) Steve Scherf et al.
# Submitted via: CDex 1.51
#
DISCID=8b0e240a
DTITLE=Harold Mabern - Fantasy
DYEAR=2004
DGENRE=Jazz
TTITLE0=Almost Like Being In Love
TTITLE1=Harlem Dawn
TTITLE2=Lollipop And Roses
TTITLE3=Sesame Street Theme
TTITLE4=Fantasy
TTITLE5=The Sidewinder
TTITLE6=It Only Hurts When I Smile
TTITLE7=Let's Face The Music And Dance
TTITLE8=Jackson Park El Train
TTITLE9=You Belong To Me
EXTD=YEAR: 2004
EXTT0=
EXTT1=
EXTT2=
EXTT3=
EXTT4=
EXTT5=
EXTT6=
EXTT7=
EXTT8=
EXTT9=
PLAYORDER=
